<?xml version="1.0" encoding="utf-8"?>
<!-- Generator: Adobe Illustrator 18.0.0, SVG Export Plug-In . SVG Version: 6.00 Build 0)  -->
<!DOCTYPE svg PUBLIC "-//W3C//DTD SVG 1.1//EN" "http://www.w3.org/Graphics/SVG/1.1/DTD/svg11.dtd">
<svg version="1.1" id="Layer_1" xmlns="http://www.w3.org/2000/svg" xmlns:xlink="http://www.w3.org/1999/xlink" x="0px" y="0px"
	 width="2800px" height="2800px" viewBox="0 0 2800 2800" enable-background="new 0 0 2800 2800" xml:space="preserve">
<pattern  x="1100" y="1700" width="86" height="86" patternUnits="userSpaceOnUse" id="New_Pattern" viewBox="0 -107.5 86 86" overflow="visible">
	<g>
		<polygon fill="none" points="0,-21.5 86,-21.5 86,-107.5 0,-107.5 		"/>
		<g>
			<polygon fill="none" points="0,-21.5 86,-21.5 86,-107.5 0,-107.5 			"/>
			<g>
				<polygon fill="#E6E6E6" points="43,-129 86,-129 86,-86 43,-86 				"/>
			</g>
			<g>
				<polygon fill="#FFFFFF" points="0,-129 43,-129 43,-86 0,-86 				"/>
			</g>
			<g>
				<polygon fill="#FFFFFF" points="43,-86 86,-86 86,-43 43,-43 				"/>
				<polygon fill="#E6E6E6" points="0,-86 43,-86 43,-43 0,-43 				"/>
			</g>
			<g>
				<polygon fill="#E6E6E6" points="43,-43 86,-43 86,0 43,0 				"/>
			</g>
			<g>
				<polygon fill="#FFFFFF" points="0,-43 43,-43 43,0 0,0 				"/>
			</g>
		</g>
	</g>
</pattern>
<g id="BACKGROUND">
	<g opacity="0.2">
		<pattern  id="SVGID_1_" xlink:href="#New_Pattern" patternTransform="matrix(1 0 0 -1 -68 -14574.5)"  opacity="0.2">
		</pattern>
		<rect fill="url(#SVGID_1_)" width="2800" height="2800"/>
	</g>
	<g>
		
			<linearGradient id="SVGID_2_" gradientUnits="userSpaceOnUse" x1="2736" y1="1400" x2="5000" y2="1400" gradientTransform="matrix(4.489659e-11 -1 -1 -4.489659e-11 2800 5000)">
			<stop  offset="0" style="stop-color:#FFFFFF;stop-opacity:0"/>
			<stop  offset="0.5" style="stop-color:#ED1C24"/>
			<stop  offset="1" style="stop-color:#F15A24"/>
		</linearGradient>
		<rect fill="url(#SVGID_2_)" width="2800" height="2264"/>
	</g>
</g>
<g id="OBJECTS">
	<g>
		<g>
			<rect id="XMLID_2_" x="219.3" y="2263.5" fill="#E6E7E8" width="2361.3" height="84.8"/>
			
				<linearGradient id="XMLID_3_" gradientUnits="userSpaceOnUse" x1="1399.9501" y1="413.8" x2="1399.9501" y2="451.6001" gradientTransform="matrix(1 0 0 -1 0 2800)">
				<stop  offset="0" style="stop-color:#4D4D4D;stop-opacity:0.9"/>
				<stop  offset="1" style="stop-color:#4D4D4D"/>
			</linearGradient>
			<path id="XMLID_5_" fill="url(#XMLID_3_)" d="M1400,2348.4H219.3c39.7,27.7,80.3,37.8,124.3,37.8H1400h1056.3
				c44,0,84.6-10.1,124.3-37.8H1400z"/>
			<g>
				<path fill="#404041" d="M2450.7,2289.4H2378c-0.9,0-1.6,0.7-1.6,1.6v15c0,0.9,0.7,1.6,1.6,1.6h72.7c0.9,0,1.6-0.7,1.6-1.6v-15
					C2452.3,2290.1,2451.6,2289.4,2450.7,2289.4z"/>
				<path fill="#404041" d="M421.9,2289.4h-72.7c-0.9,0-1.6,0.7-1.6,1.6v15c0,0.9,0.7,1.6,1.6,1.6h72.7c0.9,0,1.6-0.7,1.6-1.6v-15
					C423.5,2290.1,422.8,2289.4,421.9,2289.4z"/>
			</g>
			<path fill="#929497" d="M1573.6,2263.2c-0.1-0.1-0.5-0.2-0.6-0.2h-346c-0.1,0-0.5,0.1-0.6,0.2c-0.1,0.1-0.4,0.2-0.4,0.4v26.5
				c0,4.9,4.5,9,9.4,9h329.2c4.9,0,9.4-4,9.4-9v-26.5C1574,2263.4,1573.7,2263.3,1573.6,2263.2z"/>
		</g>
		<g>
			<path id="XMLID_12_" fill="#243841" d="M457.7,2263.5h1884.6V1080.3c0-30.1-24.5-54.6-54.6-54.6H512.2
				c-30.1,0-54.6,24.5-54.6,54.6v1183.2H457.7z"/>
			<rect id="XMLID_4_" x="535.9" y="1110.5" fill="#476370" width="1728.2" height="1080.9"/>
		</g>
		<g>
			<g>
				<g>
					<path fill="#E6E6E6" d="M1420.5,1792.2c-4.3-7.4-11.9-11.8-20.5-11.8s-16.2,4.4-20.5,11.8l-84.2,145.8
						c-4.3,7.4-4.3,16.3,0,23.7c4.3,7.4,11.9,11.8,20.5,11.8h168.3c8.6,0,16.2-4.4,20.5-11.8s4.3-16.3,0-23.7L1420.5,1792.2z
						 M1400,1956.4c-7.3,0-13.3-6-13.3-13.3s6-13.3,13.3-13.3s13.3,6,13.3,13.3S1407.3,1956.4,1400,1956.4z M1413.9,1831l-4,79
						c-0.3,5.5-4.9,9.7-10.4,9.4c-5.1-0.3-9.1-4.4-9.4-9.4l-4-79c-0.4-7.7,5.5-14.2,13.2-14.6s14.2,5.5,14.6,13.2
						C1413.9,1830.1,1413.9,1830.6,1413.9,1831z"/>
					<path fill="#FFFFFF" d="M1528,1924.4l-84.2-145.8c-9.2-15.9-25.6-25.3-43.9-25.3s-34.7,9.5-43.9,25.3l-84.2,145.8
						c-9.2,15.9-9.2,34.8,0,50.6c9.2,15.9,25.6,25.3,43.9,25.3H1484c18.3,0,34.7-9.5,43.9-25.3
						C1537.2,1959.2,1537.2,1940.3,1528,1924.4z M1504.6,1961.6c-4.3,7.4-11.9,11.8-20.5,11.8h-168.3c-8.6,0-16.2-4.4-20.5-11.8
						s-4.3-16.3,0-23.7l84.2-145.8c4.3-7.4,11.9-11.8,20.5-11.8s16.2,4.4,20.5,11.8l84.2,145.8
						C1508.9,1945.3,1508.9,1954.2,1504.6,1961.6z"/>
					<path fill="#FFFFFF" d="M1399.3,1816.4c-7.7,0.4-13.6,6.9-13.2,14.6l4,79c0.3,5,4.3,9.2,9.4,9.4c5.5,0.3,10.1-3.9,10.4-9.4
						l4-79c0-0.5,0-0.9,0-1.4C1413.5,1821.9,1407,1816,1399.3,1816.4z"/>
					<circle fill="#FFFFFF" cx="1400" cy="1943.1" r="13.3"/>
				</g>
				<g>
					<g>
						<path fill="#EF413D" d="M1484.2,2000.4h-168.3c-18.3,0-34.7-9.5-43.9-25.3c-9.2-15.9-9.2-34.8,0-50.6l84.2-145.8
							c9.2-15.9,25.6-25.3,43.9-25.3s34.7,9.5,43.9,25.3l84.2,145.8c9.2,15.9,9.2,34.8,0,50.6
							C1518.9,1990.9,1502.5,2000.4,1484.2,2000.4z M1400,1780.3c-8.6,0-16.2,4.4-20.5,11.8l-84.2,145.8c-4.3,7.4-4.3,16.3,0,23.7
							c4.3,7.4,11.9,11.8,20.5,11.8h168.3c8.6,0,16.2-4.4,20.5-11.8s4.3-16.3,0-23.7l-84.2-145.8
							C1416.2,1784.7,1408.6,1780.3,1400,1780.3z"/>
					</g>
					<g>
						<path fill="#EF413D" d="M1413.9,1831l-4,79c-0.3,5.5-4.9,9.7-10.4,9.4c-5.1-0.3-9.1-4.4-9.4-9.4l-4-79
							c-0.4-7.7,5.5-14.2,13.2-14.6s14.2,5.5,14.6,13.2C1413.9,1830.1,1413.9,1830.6,1413.9,1831z"/>
					</g>
					<g>
						<circle fill="#EF413D" cx="1400" cy="1943.1" r="13.3"/>
					</g>
				</g>
			</g>
			<path fill="#E6E6E6" d="M1167.1,2047l-30.4,86h22.7l6-20h29.9l5.9,20h23.2l-30.3-86H1167.1z M1170.2,2098l6.5-20.7l3.5-13.3h0.3
				l3.8,13.5l6.3,20.5H1170.2z M1283,2116h44v17h-66v-86h22V2116z M1388,2116h47v17h-69v-86h67v17h-45v18h36v16h-36V2116z
				 M1544.2,2089.8c2.9-4.2,4.3-9.4,4.3-15.7c0-8.9-2.8-15.5-8.4-20.2s-13.7-6.9-24.2-6.9H1475v86h22v-32h13.2l18.5,32h24.9
				l-22-33.9C1537.1,2097.1,1541.3,2094,1544.2,2089.8z M1522.5,2082.6c-2.2,1.7-5.7,2.4-10.5,2.4h-15v-21h15.1
				c4.8,0,8.3,0.7,10.5,2.4s3.3,4.3,3.3,8C1525.8,2078.3,1524.7,2080.9,1522.5,2082.6z M1663,2047v17h-28v69h-23v-69h-28v-17H1663z"
				/>
		</g>
		<polygon opacity="0.1" fill="#FFFFFF" enable-background="new    " points="2264.1,2191.4 1227,2191.4 1554,1110.5 2264.1,1110.5 
					"/>
	</g>
	<g>
		<path fill="#CCCCCC" d="M1726.7,665.5l13.5-7L1708,603v62.5c0,21.8,10.1,41.3,25.8,54l13.3-13.3
			C1734.7,696.9,1726.7,682.1,1726.7,665.5z"/>
		<rect x="901.5" y="1047.7" fill="#CFA333" width="996.9" height="614.3"/>
		<path fill="#FFC940" d="M1346.8,642.5l-445.2,405.2h996.9l-445.2-405.2C1423,615.1,1377,615.1,1346.8,642.5z"/>
		<path fill="#F2F2F2" d="M1022.4,675.7v867.5h755.2V675.7H1022.4z M1748,707.4c-2.2,2.6-4.5,5.1-6.9,7.5s-4.9,4.7-7.5,6.9
			s-5.3,4.3-8.3,6.2c1.9-3,4-5.7,6.2-8.3s4.5-5.1,6.9-7.5s4.9-4.7,7.5-6.9s5.3-4.3,8.3-6.2C1752.3,702.1,1750.2,704.8,1748,707.4z"
			/>
		<path fill="#CCCCCC" d="M1828.5,481.4v184.1c0,28.1-22.8,50.9-50.9,50.9c-11.4,0-22-3.8-30.5-10.2l-13.3,13.3
			c12,9.7,27.2,15.5,43.8,15.5c38.4,0,69.6-31.2,69.6-69.6v-184H1828.5z"/>
		<polygon fill="#F5C13D" points="901.5,1047.7 1400,1354.9 901.5,1662 		"/>
		<polygon fill="#F5C13D" points="1898.5,1662 1400,1354.9 1898.5,1047.7 		"/>
		<path opacity="0.1" fill="#1A1A1A" enable-background="new    " d="M1346.8,1244.8L901.5,1662h996.9l-445.2-417.2
			C1423,1216.5,1377,1216.5,1346.8,1244.8z"/>
		<path fill="#FFC940" d="M1346.8,1256.9L901.5,1662h996.9l-445.2-405.2C1423,1229.4,1377,1229.4,1346.8,1256.9z"/>
		<g>
			<path fill="#476370" d="M1400,725.8c-51.2,0-92.6,41.5-92.6,92.6s41.5,92.6,92.6,92.6s92.6-41.5,92.6-92.6
				S1451.2,725.8,1400,725.8z M1400,757.9c14.9,0,27,12.1,27,27s-12.1,27-27,27s-27-12.1-27-27S1385.1,757.9,1400,757.9z
				 M1456,874.6c-14,14.4-34,23.3-56,23.3s-42-8.9-56-23.3V858c0-20.3,16.3-37,36.6-37h38.7c20.3,0,36.6,16.7,36.6,37v16.6H1456z"/>
			<circle fill="#F2F2F2" cx="1400" cy="784.9" r="27"/>
			<path fill="#F2F2F2" d="M1419.4,821h-38.7c-20.3,0-36.6,16.7-36.6,37v16.5c14,14.4,34,23.3,56,23.3s42-8.9,56-23.3V858
				C1456,837.7,1439.7,821,1419.4,821z"/>
		</g>
		<g>
			<path fill="#E6E6E6" d="M1623.7,948h-447.3c-3.8,0-7,1.4-9.5,3.8c-2.5,2.5-3.8,5.7-3.8,9.5v49.7c0,3.8,1.4,7.3,3.8,9.8
				c2.5,2.5,5.7,4.1,9.5,4.1h447.3c3.8,0,7-1.7,9.5-4.1c2.5-2.5,3.8-6,3.8-9.8v-49.7c0-3.8-1.4-7-3.8-9.5
				C1630.7,949.4,1627.4,948,1623.7,948z"/>
			<path fill="#B3B3B3" d="M1640,961.7c0-8.7-7-15.7-15.7-15.7h-447.6c-8.7,0-15.7,7-15.7,15.7v49.6c0,8.7,7,15.7,15.7,15.7h447.6
				c8.7,0,15.7-7,15.7-15.7V961.7z M1637,1011.1c0,3.8-1.4,7.3-3.8,9.8c-2.5,2.5-5.7,4.1-9.5,4.1h-447.3c-3.8,0-7-1.7-9.5-4.1
				c-2.5-2.5-3.8-6-3.8-9.8v-49.7c0-3.8,1.4-7,3.8-9.5c2.5-2.5,5.7-3.8,9.5-3.8h447.3c3.8,0,7,1.4,9.5,3.8c2.5,2.5,3.8,5.7,3.8,9.5
				V1011.1z"/>
		</g>
		<g>
			<path fill="#E6E6E6" d="M1623.7,1055h-447.3c-3.8,0-7,1.5-9.5,4s-3.8,5.9-3.8,9.7v49.7c0,3.8,1.4,7.2,3.8,9.6
				c2.5,2.5,5.7,4,9.5,4h447.3c3.8,0,7-1.5,9.5-4s3.8-5.9,3.8-9.6v-49.7c0-3.8-1.4-7.2-3.8-9.7
				C1630.7,1056.5,1627.4,1055,1623.7,1055z"/>
			<path fill="#B3B3B3" d="M1640,1068.7c0-8.7-7-15.7-15.7-15.7h-447.6c-8.7,0-15.7,7-15.7,15.7v49.6c0,8.7,7,15.7,15.7,15.7h447.6
				c8.7,0,15.7-7,15.7-15.7V1068.7z M1637,1118.4c0,3.8-1.4,7.2-3.8,9.6c-2.5,2.5-5.7,4-9.5,4h-447.3c-3.8,0-7-1.5-9.5-4
				s-3.8-5.9-3.8-9.6v-49.7c0-3.8,1.4-7.2,3.8-9.7c2.5-2.5,5.7-4,9.5-4h447.3c3.8,0,7,1.5,9.5,4s3.8,5.9,3.8,9.7V1118.4z"/>
		</g>
		<g>
			<path fill="#808080" d="M1201.9,1004.9c-1.3,2.6-2.7,4.4-4.1,5.5s-3.1,1.6-5.2,1.6c-1.2,0-2.2-0.1-3-0.4
				c-0.8-0.3-1.5-0.7-2.1-1.4l1.9-3.7c0.8,1.1,1.9,1.6,3.5,1.6c0.9,0,1.7-0.2,2.4-0.7c0.7-0.5,1.3-1.3,2-2.6l1.3-2.4l-1.7-5.6
				l-4.9-17.1h5.4l3.2,14.2l0.8,4.2l2.1-4.7l6.4-13.8h5L1201.9,1004.9z"/>
			<path fill="#808080" d="M1236.9,982.3c1.7,2.1,2.4,5,1.9,8.6c-0.5,3.7-1.8,6.6-4,8.6c-2.2,2.1-5.1,3.1-8.7,3.1s-6.2-1-7.9-3.1
				c-1.7-2.1-2.4-5-1.9-8.6c0.5-3.7,1.8-6.6,4-8.6c2.2-2.1,5.1-3.1,8.7-3.1S1235.2,980.2,1236.9,982.3z M1223.6,985
				c-1.3,1.4-2.1,3.3-2.4,5.9c-0.3,2.6,0,4.5,0.9,5.9s2.4,2.1,4.5,2.1c2,0,3.7-0.7,5-2.1c1.3-1.4,2.1-3.3,2.4-5.9
				c0.3-2.5,0-4.5-1-5.9c-0.9-1.4-2.4-2.1-4.5-2.1C1226.5,983,1224.9,983.7,1223.6,985z"/>
			<path fill="#808080" d="M1266.9,979.6l-2.8,22.6h-4.3l0.3-3.7c-1.9,2.7-4.7,4.1-8.5,4.1c-2.4,0-4.3-0.7-5.6-2
				c-1.3-1.3-1.8-3.4-1.5-6.2l1.8-14.9h4.8l-1.7,13.6c-0.2,2,0,3.4,0.7,4.2s1.8,1.2,3.3,1.2c1.8,0,3.4-0.6,4.8-1.7
				c1.3-1.2,2.1-2.9,2.4-5.1l1.5-12.2h4.8V979.6z"/>
			<path fill="#808080" d="M1288.6,979.6l-1.3,4.4c-0.6-0.4-1.6-0.6-2.8-0.6c-1,0-1.9,0.3-2.8,0.8s-1.7,1.3-2.4,2.3
				c-0.7,1-1.1,2.3-1.3,3.7l-1.5,12h-4.8l2.8-22.6h4.1l-0.1,4.1c1.6-3,4.2-4.5,7.7-4.5C1287.2,979.2,1288,979.3,1288.6,979.6z"/>
			<path fill="#808080" d="M1325.3,992.7h-16.5c0,2,0.5,3.5,1.6,4.5c1,1,2.4,1.6,4.2,1.6c1.5,0,2.7-0.3,3.8-0.8
				c1-0.5,1.8-1.3,2.3-2.3l3.8,1.7c-2.1,3.5-5.6,5.2-10.4,5.2c-3.6,0-6.2-1-8-3.1c-1.7-2.1-2.4-5-1.9-8.6c0.5-3.7,1.8-6.6,4-8.7
				c2.2-2.1,5-3.1,8.5-3.1c3.3,0,5.8,1,7.4,3s2.2,4.7,1.8,8C1325.6,991.1,1325.5,992,1325.3,992.7z M1311.7,984.6
				c-1.2,1-2,2.5-2.6,4.5h12.2c0-1.9-0.5-3.4-1.4-4.4c-0.9-1.1-2.2-1.6-3.8-1.6C1314.4,983,1312.9,983.5,1311.7,984.6z"/>
			<path fill="#808080" d="M1364.5,980.1c1.2,0.6,2.1,1.6,2.7,2.8c0.6,1.3,0.8,2.8,0.6,4.7l-1.8,14.6h-4.8l1.7-13.9
				c0.2-1.8,0-3.1-0.8-3.9c-0.7-0.8-1.8-1.3-3.2-1.3c-1.7,0-3.1,0.6-4.4,1.8s-2,2.9-2.3,5l-1.5,12.3h-4.8l1.7-13.9
				c0.2-1.8,0-3.1-0.8-3.9c-0.7-0.8-1.8-1.3-3.2-1.3c-1,0-1.9,0.2-2.9,0.7s-1.8,1.3-2.5,2.3c-0.7,1.1-1.2,2.4-1.3,4l-1.5,12h-4.8
				l2.8-22.6h4.3l-0.2,3.8c0.9-1.4,2.1-2.4,3.5-3.1c1.4-0.7,2.8-1.1,4.4-1.1c1.7,0,3.2,0.4,4.4,1.2c1.3,0.8,2.2,1.9,2.6,3.4
				c0.9-1.5,2.1-2.6,3.6-3.4s3.1-1.2,4.7-1.2C1361.9,979.2,1363.3,979.5,1364.5,980.1z"/>
			<path fill="#808080" d="M1394.8,998.9l-0.7,3.3c-0.9,0.4-1.8,0.5-2.9,0.5c-1.3,0-2.3-0.3-3-0.8s-1.1-1.4-1.2-2.6
				c-0.8,1.1-1.9,1.9-3.4,2.5s-3,0.9-4.7,0.9c-2.2,0-3.9-0.5-5.1-1.5s-1.7-2.5-1.5-4.4c0.2-1.8,1.1-3.3,2.8-4.5
				c1.6-1.2,3.9-2.1,6.9-2.6l5.9-1l0.1-1.2c0.2-1.4-0.1-2.5-0.8-3.3c-0.7-0.8-1.8-1.2-3.2-1.2c-3,0-5.1,1.4-6.3,4.1l-3.5-2
				c0.8-1.8,2-3.2,3.8-4.3s3.9-1.6,6.4-1.6c2.9,0,5.2,0.7,6.7,2c1.6,1.4,2.2,3.3,1.8,6l-1.3,10.2c-0.1,0.6,0,1,0.2,1.3
				s0.6,0.4,1.2,0.4C1393.8,999.1,1394.3,999,1394.8,998.9z M1384.9,997.8c1.3-0.8,2.1-1.8,2.2-3.1l0.3-2.7l-5,1
				c-1.6,0.3-2.8,0.7-3.6,1.3c-0.8,0.5-1.3,1.3-1.4,2.2c-0.1,0.8,0.1,1.5,0.6,1.9s1.3,0.7,2.4,0.7
				C1382.1,999,1383.6,998.6,1384.9,997.8z"/>
			<path fill="#808080" d="M1403.8,1002.2h-4.8l2.8-22.6h4.8L1403.8,1002.2z M1402.3,975c-0.5-0.5-0.7-1.3-0.6-2.2
				c0.1-1,0.5-1.7,1.1-2.2s1.5-0.8,2.5-0.8s1.8,0.3,2.3,0.8s0.7,1.2,0.6,2.2s-0.5,1.7-1.1,2.2s-1.4,0.8-2.5,0.8
				C1403.6,975.8,1402.9,975.6,1402.3,975z"/>
			<path fill="#808080" d="M1416.9,995.6c-0.1,1.1-0.1,1.9,0.2,2.3c0.3,0.4,0.9,0.7,1.8,0.7c0.6,0,1.1,0,1.5-0.1s0.9-0.2,1.6-0.5
				l-1,3.9c-1.1,0.5-2.4,0.8-3.8,0.8c-2,0-3.4-0.5-4.3-1.5c-0.8-1-1.1-2.6-0.8-4.8l3.3-26.8h4.8L1416.9,995.6z"/>
		</g>
		<g>
			<path fill="#808080" d="M1200.5,1089.6c1.5,2.1,2.1,4.9,1.6,8.6s-1.7,6.6-3.7,8.7s-4.6,3.1-7.7,3.1c-1.6,0-3-0.4-4.2-1.1
				s-2.1-1.7-2.6-3l-1.6,13.1h-4.8l3.9-32.1h4.2l-0.3,4.2c0.8-1.4,2-2.5,3.4-3.4c1.4-0.8,3.1-1.3,4.8-1.3
				C1196.7,1086.5,1199,1087.5,1200.5,1089.6z M1194.9,1104c1.3-1.4,2.1-3.3,2.4-5.8s0-4.4-0.9-5.8s-2.4-2.1-4.3-2.1
				c-1.8,0-3.4,0.6-4.6,1.9c-1.3,1.2-2.1,3-2.5,5.2l-0.2,1.7c-0.1,2.2,0.3,3.9,1.2,5.1c0.9,1.2,2.3,1.9,4.2,1.9
				C1192,1106.1,1193.6,1105.4,1194.9,1104z"/>
			<path fill="#808080" d="M1228.6,1106.2l-0.7,3.3c-0.9,0.4-1.8,0.5-2.9,0.5c-1.3,0-2.3-0.3-3-0.8s-1.1-1.4-1.2-2.6
				c-0.8,1.1-1.9,1.9-3.4,2.5s-3,0.9-4.7,0.9c-2.2,0-3.9-0.5-5.1-1.5s-1.7-2.5-1.5-4.4c0.2-1.8,1.1-3.3,2.8-4.5s3.9-2.1,6.9-2.6
				l5.9-1l0.1-1.2c0.2-1.4-0.1-2.5-0.8-3.3c-0.7-0.8-1.8-1.2-3.2-1.2c-3,0-5.1,1.4-6.3,4.1l-3.5-2c0.8-1.8,2-3.2,3.8-4.3
				c1.8-1.1,3.9-1.6,6.4-1.6c2.9,0,5.2,0.7,6.7,2s2.2,3.3,1.8,6l-1.3,10.2c-0.1,0.6,0,1,0.2,1.3s0.6,0.4,1.2,0.4
				C1227.5,1106.4,1228.1,1106.3,1228.6,1106.2z M1218.7,1105.2c1.3-0.8,2.1-1.8,2.2-3.1l0.3-2.7l-5,1c-1.6,0.3-2.8,0.7-3.6,1.3
				c-0.8,0.5-1.3,1.3-1.4,2.2c-0.1,0.8,0.1,1.5,0.6,1.9s1.3,0.7,2.4,0.7C1215.8,1106.3,1217.3,1105.9,1218.7,1105.2z"/>
			<path fill="#808080" d="M1234.9,1108.8c-1.7-0.8-2.9-2-3.6-3.6l3.6-2.8c0.4,1.3,1.2,2.2,2.3,2.8c1.1,0.6,2.5,0.9,4.2,0.9
				c1.5,0,2.8-0.2,3.7-0.7s1.4-1.2,1.5-2c0.1-0.7-0.2-1.3-1-1.7c-0.7-0.4-2-0.9-3.9-1.2c-3.3-0.6-5.5-1.5-6.7-2.5
				c-1.2-1.1-1.7-2.5-1.5-4.5c0.2-1.2,0.7-2.4,1.6-3.5s2.1-1.9,3.6-2.6c1.5-0.6,3.2-1,5.2-1c2.5,0,4.5,0.4,5.9,1.2
				c1.4,0.8,2.4,2.1,3,3.9l-3.7,2.5c-0.4-1.3-1-2.3-1.9-2.9s-2.1-0.9-3.6-0.9c-1.4,0-2.5,0.3-3.5,0.8s-1.5,1.2-1.6,1.9
				c-0.1,0.8,0.2,1.5,1,1.9c0.7,0.5,2.1,0.9,4.2,1.3c3.1,0.6,5.3,1.4,6.5,2.4c1.2,1.1,1.7,2.5,1.4,4.4c-0.2,2-1.3,3.7-3.2,4.9
				c-1.9,1.3-4.4,1.9-7.5,1.9C1238.5,1110,1236.6,1109.6,1234.9,1108.8z"/>
			<path fill="#808080" d="M1258.8,1108.8c-1.7-0.8-2.9-2-3.6-3.6l3.6-2.8c0.4,1.3,1.2,2.2,2.3,2.8c1.1,0.6,2.5,0.9,4.2,0.9
				c1.5,0,2.8-0.2,3.7-0.7s1.4-1.2,1.5-2c0.1-0.7-0.2-1.3-1-1.7c-0.7-0.4-2-0.9-3.9-1.2c-3.3-0.6-5.5-1.5-6.7-2.5
				c-1.2-1.1-1.7-2.5-1.5-4.5c0.2-1.2,0.7-2.4,1.6-3.5s2.1-1.9,3.6-2.6c1.5-0.6,3.2-1,5.2-1c2.5,0,4.5,0.4,5.9,1.2
				c1.4,0.8,2.4,2.1,3,3.9l-3.7,2.5c-0.4-1.3-1-2.3-1.9-2.9s-2.1-0.9-3.6-0.9c-1.4,0-2.5,0.3-3.5,0.8s-1.5,1.2-1.6,1.9
				c-0.1,0.8,0.2,1.5,1,1.9c0.7,0.5,2.1,0.9,4.2,1.3c3.1,0.6,5.3,1.4,6.5,2.4c1.2,1.1,1.7,2.5,1.4,4.4c-0.2,2-1.3,3.7-3.2,4.9
				c-1.9,1.3-4.4,1.9-7.5,1.9C1262.4,1110,1260.5,1109.6,1258.8,1108.8z"/>
			<path fill="#808080" d="M1316.5,1086.9l-10.3,22.6h-5.3l-3.6-17.1l-7.5,17.1h-5.3l-4.8-22.6h5.2l2.9,18.1l7.9-18.1h4.8l3.4,18.1
				l7.4-18.1H1316.5z"/>
			<path fill="#808080" d="M1338.7,1089.6c1.7,2.1,2.4,5,1.9,8.6c-0.5,3.7-1.8,6.6-4,8.6c-2.2,2.1-5.1,3.1-8.7,3.1s-6.2-1-7.9-3.1
				c-1.7-2.1-2.4-5-1.9-8.6c0.5-3.7,1.8-6.6,4-8.6c2.2-2.1,5.1-3.1,8.7-3.1S1337,1087.5,1338.7,1089.6z M1325.4,1092.3
				c-1.3,1.4-2.1,3.3-2.4,5.9s0,4.5,0.9,5.9s2.4,2.1,4.5,2.1c2,0,3.7-0.7,5-2.1s2.1-3.3,2.4-5.9c0.3-2.5,0-4.5-1-5.9
				c-0.9-1.4-2.4-2.1-4.5-2.1C1328.3,1090.3,1326.7,1091,1325.4,1092.3z"/>
			<path fill="#808080" d="M1362.4,1086.9l-1.3,4.4c-0.6-0.4-1.6-0.6-2.8-0.6c-1,0-1.9,0.3-2.8,0.8s-1.7,1.3-2.4,2.3
				c-0.7,1-1.1,2.3-1.3,3.7l-1.5,12h-4.8l2.8-22.6h4.1l-0.1,4.1c1.6-3,4.2-4.5,7.7-4.5C1361,1086.5,1361.8,1086.6,1362.4,1086.9z"/>
			<path fill="#808080" d="M1388.5,1076.8l-4,32.8h-4.2l0.2-4c-0.8,1.4-2,2.4-3.4,3.3c-1.4,0.8-3,1.2-4.7,1.2c-3.1,0-5.4-1-7-3.1
				c-1.5-2.1-2.1-4.9-1.6-8.6s1.7-6.6,3.8-8.7c2-2.1,4.6-3.1,7.7-3.1c1.7,0,3.1,0.4,4.2,1.1c1.2,0.7,2,1.7,2.5,3l1.7-13.8h4.8
				V1076.8z M1378.6,1104.1c1.3-1.4,2.1-3.2,2.4-5.6l0.1-0.5c0.3-2.3,0-4.2-1-5.5c-0.9-1.3-2.4-2-4.3-2c-2,0-3.6,0.7-4.8,2.1
				c-1.3,1.4-2.1,3.3-2.4,5.8s0,4.4,0.9,5.8s2.4,2.1,4.3,2.1C1375.8,1106.1,1377.4,1105.4,1378.6,1104.1z"/>
		</g>
		<path fill="#CCCCCC" d="M1847,439.2V0h-18v439.2c-11,3.8-17.6,13.5-17.6,25c0,14.7,11.8,26.6,26.5,26.6s26.5-12,26.5-26.6
			C1864.5,452.8,1857,443,1847,439.2z M1837.8,476.8c-7,0-12.7-5.7-12.7-12.7s5.7-12.7,12.7-12.7s12.7,5.7,12.7,12.7
			C1850.5,471.1,1844.8,476.8,1837.8,476.8z"/>
	</g>
</g>
</svg>
